<?xml version="1.0" encoding="utf-8"?>
<!-- Generator: Adobe Illustrator 20.0.0, SVG Export Plug-In . SVG Version: 6.00 Build 0)  -->
<svg version="1.1" xmlns="http://www.w3.org/2000/svg" xmlns:xlink="http://www.w3.org/1999/xlink" x="0px" y="0px"
	 viewBox="0 0 756 358" enable-background="new 0 0 756 358" xml:space="preserve">
<g id="Layer_1">
</g>
<g id="Layer_3" display="none">
	
		<rect x="-62.9" y="-1116" display="inline" stroke="#000000" stroke-width="2.8346" stroke-miterlimit="10" width="1005.3" height="2551"/>
</g>
<g id="Layer_15">
</g>
<g id="Layer_2" display="none">
</g>
<g id="Layer_7" display="none">
</g>
<g id="Layer_6" display="none">
</g>
<g id="Layer_4" display="none">
</g>
<g id="Layer_5" display="none">
</g>
<g id="Layer_8" display="none">
</g>
<g id="Layer_9" display="none">
</g>
<g id="Layer_13" display="none">
</g>
<g id="Layer_12">
</g>
<g id="Layer_10">
</g>
<g id="Layer_14">
</g>
<g id="Layer_11">
	<path fill="#F7F7F7" d="M94.5,165.1c2.4-1,4.4-3.6,4.4-5.2c0-1.5,0-103.4,0-106.7c0-5.4-9-13.9-20.9-13.9c-17.3,0-70.4,0-70.4,0
		s0,0,0,8.9c0,11.9,12.7,10.4,12.7,10.4s1.6,286.3,1.6,289.6c4.9,0,5.6,0,12.1,0c9.2,0,5.6,0,15.8,0c0-6.7-1.2-166.5-1.2-166.5h24.3
		v166.5c0,0,9.6,0,11.6,0c3.9,0,14.4,0,14.4,0V177.1C99,177.1,99.2,169.2,94.5,165.1z M68.2,153.9c-4.5,0-19.5,0-19.5,0V59.1h14.4
		c0,0,8.7,0.2,9.2,4.3s0.2,83.7,0.2,83.7S73.1,153.9,68.2,153.9z"/>
	<path fill="#F7F7F7" d="M743,165.1c2.4-1,4.4-3.6,4.4-5.2c0-1.5,0-103.4,0-106.7c0-5.4-9-13.9-20.9-13.9c-17.3,0-70.4,0-70.4,0
		s0,0,0,8.9c0,11.9,12.7,10.4,12.7,10.4s1.6,286.3,1.6,289.6c4.9,0,5.6,0,12.1,0c9.2,0,5.6,0,15.8,0c0-6.7-1.2-166.5-1.2-166.5h24.3
		v166.5c0,0,9.6,0,11.6,0c3.9,0,14.4,0,14.4,0V177.1C747.5,177.1,747.7,169.2,743,165.1z M716.7,153.9c-4.5,0-19.5,0-19.5,0V59.1
		h14.4c0,0,8.7,0.2,9.2,4.3s0.2,83.7,0.2,83.7S721.6,153.9,716.7,153.9z"/>
	<path fill="#F7F7F7" d="M306.8,333c0,0,0-256,0-273.9s-21.6-19.7-21.6-19.7s-15,0-68.7,0c0,21.6,16.5,19.7,16.5,19.7V331
		c-17,0-13.1,17.4-13.1,17.4s40.3,0,65,0C309.7,348.4,306.8,333,306.8,333z M273.6,331.4c-9.8,0-15.8,0-15.8,0V59.1l17.6,0
		c0,0,6.8-0.2,6.8,5.5s0,259.1,0,259.1S283.4,331.4,273.6,331.4z"/>
	<rect x="329.7" y="39.4" fill="#F7F7F7" width="28.6" height="308.9"/>
	<rect x="329.7" y="9.8" fill="#F7F7F7" width="28.6" height="16"/>
	<path fill="#F7F7F7" d="M176.2,39.4c-10.2,0-18.1,0-29.9,0c-11.9,0-24.5,7.1-24.5,15.2s-0.1,293.7-0.1,293.7l28.2,0l0.1-166.1h24.1
		v166.1H200c0,0,0-284.4,0-291.7S186.4,39.4,176.2,39.4z M174.1,153.9H150V61.4c0,0,2-2.3,12.1-2.3c10.1,0,12.1,2.6,12.1,2.6V153.9z
		"/>
	<path fill="#F7F7F7" d="M435.9,39.4c-10.2,0-18.1,0-29.9,0s-24.5,7.1-24.5,15.2s-0.1,293.7-0.1,293.7l28.2,0l0.1-166.1h24.1v166.1
		h25.9c0,0,0-284.4,0-291.7S446.1,39.4,435.9,39.4z M433.9,153.9h-24.2V61.4c0,0,2-2.3,12.1-2.3s12.1,2.6,12.1,2.6V153.9z"/>
	<polygon fill="#F7F7F7" points="477.1,39.4 477.1,59.1 497.7,59.1 497.7,348.4 521.3,348.4 521.3,59.1 544.1,59.1 544.1,39.4 	"/>
	<path fill="#F7F7F7" d="M614.4,38.9c-21.7,0-23.6,0-24,0c0,0-28.1,0.6-28.1,20.2v272.3c0,0-0.1,17,28.1,17c27.2,0,24.2,0,24.2,0
		s28.3,0,28.3-17c0-17.3,0-272.3,0-272.3S642.3,38.9,614.4,38.9z M614.7,324.6c0,7.2-5.3,6.8-5.3,6.8s-4.8,0-11.6,0
		s-7.3-6.1-7.3-6.1v-263c0-3.1,6.3-3.1,6.3-3.1s4.5,0,10.3,0c7.5,0,7.5,3.1,7.5,3.1S614.7,317.4,614.7,324.6z"/>
</g>
</svg>
